<svg width="19" height="19" viewBox="0 0 19 19" fill="none" xmlns="http://www.w3.org/2000/svg">
    <path d="M5.27891 9.53251C5.27813 9.39803 5.30391 9.26471 5.35476 9.1402C5.40562 9.01569 5.48055 8.90245 5.57526 8.80696L11.7067 2.67553C11.8991 2.48311 12.1601 2.375 12.4322 2.375C12.7044 2.375 12.9654 2.48311 13.1578 2.67553C13.3502 2.86796 13.4583 3.12895 13.4583 3.40109C13.4583 3.67322 13.3502 3.93421 13.1578 4.12664L7.7417 9.53251L13.1476 14.9384C13.315 15.1339 13.4025 15.3853 13.3925 15.6425C13.3826 15.8997 13.276 16.1437 13.094 16.3257C12.912 16.5077 12.668 16.6143 12.4108 16.6242C12.1536 16.6342 11.9022 16.5467 11.7067 16.3793L5.57526 10.2478C5.38647 10.0575 5.28004 9.8006 5.27891 9.53251Z" fill="#464646"/>
</svg>
