<svg width="14" height="14" viewBox="0 0 14 14" fill="none" xmlns="http://www.w3.org/2000/svg">
    <path fill-rule="evenodd" clip-rule="evenodd" d="M12.0578 3.10886C12.1809 3.2321 12.25 3.39917 12.25 3.57336C12.25 3.74755 12.1809 3.91461 12.0578 4.03786L5.70378 10.3919C5.58053 10.5149 5.41346 10.5841 5.23928 10.5841C5.06509 10.5841 4.89802 10.5149 4.77478 10.3919L1.92642 7.54353C1.81031 7.41892 1.7471 7.25412 1.7501 7.08382C1.75311 6.91354 1.82209 6.75107 1.94253 6.63063C2.06296 6.5102 2.22544 6.44122 2.39572 6.43821C2.56601 6.4352 2.73081 6.49842 2.85542 6.61453L5.23928 8.99838L11.1288 3.10886C11.252 2.98577 11.4191 2.91663 11.5933 2.91663C11.7674 2.91663 11.9346 2.98577 12.0578 3.10886Z" fill="#32312F"/>
</svg>
