<svg width="22" height="22" viewBox="0 0 22 22" fill="none" xmlns="http://www.w3.org/2000/svg">
    <path d="M17.9411 5.10334C17.0869 4.17696 15.9149 3.66675 14.6407 3.66675C13.6883 3.66675 12.816 3.96787 12.0481 4.56168C11.6606 4.86139 11.3095 5.22812 11 5.65609C10.6906 5.22822 10.3394 4.86139 9.95177 4.56168C9.18397 3.96787 8.31172 3.66675 7.35927 3.66675C6.08506 3.66675 4.91295 4.17696 4.05882 5.10334C3.2149 6.0189 2.75 7.26971 2.75 8.62548C2.75 10.0209 3.27004 11.2983 4.3865 12.6455C5.38526 13.8506 6.82073 15.0739 8.48304 16.4905C9.05068 16.9743 9.69408 17.5227 10.3621 18.1068C10.5387 18.2614 10.7653 18.3466 11 18.3465C11.2348 18.3465 11.4614 18.2613 11.6376 18.107C12.3057 17.5228 12.9494 16.9742 13.5173 16.4901C15.1794 15.0738 16.6148 13.8506 17.6136 12.6454C18.7301 11.2983 19.25 10.0209 19.25 8.62535C19.25 7.26971 18.7851 6.0189 17.9411 5.10334Z" fill="#A1A5AD"/>
</svg>
